<?xml version="1.0" encoding="UTF-8" standalone="no"?>
<svg
   xmlns:dc="http://purl.org/dc/elements/1.1/"
   xmlns:cc="http://creativecommons.org/ns#"
   xmlns:rdf="http://www.w3.org/1999/02/22-rdf-syntax-ns#"
   xmlns:svg="http://www.w3.org/2000/svg"
   xmlns="http://www.w3.org/2000/svg"
   xmlns:sodipodi="http://sodipodi.sourceforge.net/DTD/sodipodi-0.dtd"
   xmlns:inkscape="http://www.inkscape.org/namespaces/inkscape"
   viewBox="0 0 479.9 367.04"
   version="1.1"
   id="svg1005"
   sodipodi:docname="human_brain_sagittal.svg"
   inkscape:export-filename="/Users/morganat/Downloads/human_brain_sagittal.png"
   inkscape:export-xdpi="73.840446"
   inkscape:export-ydpi="73.840446"
   inkscape:version="1.0.2 (e86c8708, 2021-01-15)">
  <metadata
     id="metadata1009">
    <rdf:RDF>
      <cc:Work
         rdf:about="">
        <dc:format>image/svg+xml</dc:format>
        <dc:type
           rdf:resource="http://purl.org/dc/dcmitype/StillImage" />
      </cc:Work>
    </rdf:RDF>
  </metadata>
  <sodipodi:namedview
     pagecolor="#ffffff"
     bordercolor="#666666"
     borderopacity="1"
     objecttolerance="10"
     gridtolerance="10"
     guidetolerance="10"
     inkscape:pageopacity="0"
     inkscape:pageshadow="2"
     inkscape:window-width="1440"
     inkscape:window-height="855"
     id="namedview1007"
     showgrid="false"
     inkscape:zoom="1.4836424"
     inkscape:cx="239.95"
     inkscape:cy="183.52"
     inkscape:window-x="0"
     inkscape:window-y="23"
     inkscape:window-maximized="0"
     inkscape:current-layer="Layer_2" />
  <defs
     id="defs835">
    <style
       id="style833">.cls-1{fill:none;stroke:#a97c50;stroke-miterlimit:10;}</style>
  </defs>
  <g
     id="Layer_2"
     data-name="Layer 2">
    <path
       class="cls-1"
       d="m 235.73,243.53 c -1.66,0 -10.84,2.47 -17.5,6.6 v 0 c 0,0 0.26,-17.1 -8.07,-20.65 a 15.89,15.89 0 0 1 6.61,-1.34 c 4,0 -4.49,-10.45 5.5,-10.45 9.99,0 13.46,25.84 13.46,25.84 z"
       id="path837"
       style="stroke:#999999" />
    <path
       class="cls-1"
       d="m 180.24,199.2 -0.34,-3.5 c 0,0 -9.16,-12.5 -1.5,-27 0,0 10.13,-20 26.34,-27.5 L 226,133"
       id="path839"
       style="stroke:#999999" />
    <path
       class="cls-1"
       d="m 198.4,248.53 -4,-0.33 c 0,0 0.67,-6.17 -3.33,-7.17 -4,-1 -2.38,6.78 -6,3.17 -1.58,-1.59 4.53,-11.1 2.33,-26.17 -0.86,-5.94 -6.91,-25.34 -35,-17.17 C 139,204.77 116.24,216 98.57,202.2 80.9,188.4 82.24,168 97.57,154 c 15.33,-14 81.5,-35 116.5,-36 35,-1 63,16 64.67,16 13,0 32.16,10.67 38.83,34.5 5.15,18.39 -9.5,31.33 -18.83,30 0,0 -11.19,-0.07 -14,-15 -2,-10.61 18.95,-7.3 -10.84,-34.48 0,0 -22.54,-31.71 -102.33,-5.83 -73.5,23.81 -63.41,35.7 -59.17,42.81 14.17,23.83 47.67,1.33 67.84,13.17"
       id="path841"
       style="stroke:#999999" />
    <path
       class="cls-1"
       d="m 197.4,245.53 c 0.75,-0.75 7.11,-20.48 14.72,-28.28 10.21,-10.46 23.9,-13.67 36.8,-12.72 24.93,1.85 39.94,43.62 42.15,66.67 23.57473,69.1973 35.98369,112.64931 -20.51565,67.13632 0,0 -20.57286,-14.2405 -23.07435,-16.37632 -20.54,-18.72 -35.38,-37 -35.37,-60.76 0,-3.5 2.28,-8.33 6.12,-11.07 7.54,-5.37 17.81,-5 17.5,-6.6 -0.94,-5.08 -3.66,-25.83 -13.5,-25.83 -9.84,0 -1.51,10.45 -5.5,10.45 -2.27383,-0.0315 -4.52794,0.42549 -6.61,1.34 v 0 c 0,0 -5.71,0.54 -11.71,19"
       id="path843"
       style="stroke:#999999"
       sodipodi:nodetypes="cccccccccscscc" />
    <path
       class="cls-1"
       d="m 183.24,197 c 0,0 -1.53,1.91 1.33,3.17 11.9,5.24 2.33,6.87 4.67,14 2.07,6.34 -0.5,19 -0.5,19 l 4.66,0.72 c 0,0 1.83,13.78 4,11.61"
       id="path845"
       style="stroke:#999999" />
    <path
       class="cls-1"
       d="m 289.74,252.2 c 0,0 -2.43,-26.64 -16,-37 -9.46,-7.23 -14.28,-14.95 -14.28,-19.31 0,-8.69 14.26,-6.12 12.11,-9.36 -31.32,-47.23 -83.83,-10.33 -83.83,-10.33 0,0 1.5,7.66 0.41,12.91 a 13.57,13.57 0 0 1 -4.91,7.92"
       id="path847"
       style="stroke:#999999" />
    <path
       class="cls-1"
       d="m 236.07,134 c -32,2.67 -51.3,39.74 -47.5,37.67 60.58,-33.06 85,13.33 85,13.33 0,0 15.83,15 10,16.83 -5.83,1.83 -10,-5.5 -10,-5.5 -2.83,-5.57 -10.41,-6.08 -8.33,-3.16 3.94,5.54 1.5,9.66 1.5,9.66 l 4.66,4.5 a 28.47,28.47 0 0 1 12.84,4 c 6.16,3.84 4.16,12 4.16,12 0,0 0.66,-0.82 6.25,4.78 5.59,5.6 2.75,17.39 0.09,23.89 -2.66,6.5 0.83,13.67 0.83,13.67"
       id="path849"
       style="stroke:#999999" />
    <path
       class="cls-1"
       d="m 187.84,226.55 c 0,0 -6.77,33.93 -65.44,40.31 -45.05,4.9 -53.33,4.64 -83,-6 -26.76,-9.59 -19.33,-21 -19.33,-21 C 1.74,226.2 3.4,221.53 10.74,214.2 c 0,0 -16,-13.36 -8,-41.34 1.93,-6.77 -1.47,-14.56 2.37,-18.4 5,-5 0.73,-16.71 10.29,-20.43 0,0 -5.2,-12.85 8.67,-16 6.33,-1.46 13.67,-28.13 22,-28.13"
       id="path851"
       style="stroke:#999999" />
    <path
       class="cls-1"
       d="m 54.65,117.7 c -3.33,-2 -5.84,-3.39 -6,-7.25 -0.09,-2.16 0,-4.34 0,-6.5 0,-4.86 -3.83,-8.78 -3.25,-13.75 0,0 0,-7.5 9.25,-13.5 9.25,-6 33.25,-33 46.5,-27.5 l 4.5,10.25 c 0,0 -6,-9 -2.75,-14.75 3.25,-5.75 24.5,-17.7 39.75,-14.25"
       id="path853"
       style="stroke:#999999" />
    <path
       class="cls-1"
       d="m 10.74,214.2 c 0,0 11.91,-4 18.66,-2.25 6.75,1.75 45.25,22 61.25,22 7.49,0 15,-0.67 22.46,-0.6 a 81.4,81.4 0 0 1 11.67,0.86 c 3.77,0.6 7.15,1.95 11,1.52 2.07,-0.24 1.44,-0.36 3,-1.16 1.56,-0.8 3.13,-1.28 4.55,-2.09"
       id="path855"
       style="stroke:#999999" />
    <path
       class="cls-1"
       d="m 20.07,239.86 c 0,0 8.83,-15.16 33.83,-4.41 25,10.75 34.25,19.25 56.75,16.25 22.5,-3 46.13,-1.15 54.69,-8.54 8.56,-7.39 14.56,-13.57 12.06,-22.77 -2.5,-9.2 -9.25,-14.19 -28.75,-11.19"
       id="path857"
       style="stroke:#999999" />
    <path
       class="cls-1"
       d="m 19.65,192.45 c 1.54,1.91 4,2.86 5.2,5 0.94,1.66 1,3.71 1.55,5.48 0.9,2.92 2.86,7 5.25,9"
       id="path859"
       style="stroke:#999999" />
    <path
       class="cls-1"
       d="m 19.4,192.45 c -0.32,-4.5 2.34,-8.68 0.75,-13.25 -0.72,-2 -3,-4.46 -2.74,-6.75 0.26,-2.29 3.49,-5.45 4.59,-7.94 a 67.18,67.18 0 0 1 4.19,-8.3 c 2.35,-3.88 3.1,-0.49 4.76,2.24 1.66,2.73 3.09,4.36 6,5.73 1.9,0.91 5.87,1.21 6.8,3.27 3.44,7.64 -13.38,19.86 -3.41,24.26 a 37.91,37.91 0 0 1 12.64,8.74 c 1.91,2 3.65,3.43 4.56,6 0.77,2.17 1.29,4.55 1.94,6.75"
       id="path861"
       style="stroke:#999999" />
    <path
       class="cls-1"
       d="m 163.4,233.92 c 0,0 -1.25,-9.47 -13.5,-15 -12.25,-5.53 -37.5,6.25 -62.75,-5.75 C 61.9,201.17 44.37,171.14 80.9,137 116.15,104 147.99,122.5 172.53,100.62 188.09,86.7 230.15,86.2 230.15,86.2 l 8.5,-8.25 c 0,0 56.5,14 70.75,9.25 14.25,-4.75 32.5,-25 34.5,-31 2,-6 9.75,-27.5 20.75,-29 11,-1.5 12.75,11.5 10.5,17 -2.25,5.5 -15.75,23.8 -15.75,29.5 0,5.7 3.25,15.25 3.25,19.5"
       id="path863"
       style="stroke:#999999" />
    <path
       class="cls-1"
       d="m 167.9,27 c -3.21,-4.55 -6,-5.56 -11.5,-5.25 -5.5,0.31 -10.94,4.05 -12.8,9.25 -0.91,2.49 -1.08,3.4 0.12,5.75 1.2,2.35 2.45,4.77 3.74,7 2.8,4.86 8.55,7.9 12.19,12.25"
       id="path865"
       style="stroke:#999999" />
    <path
       class="cls-1"
       d="m 330.65,33.2 c 0,-11.55 -34.5,-53 -69,-20.5"
       id="path867"
       style="stroke:#999999" />
    <path
       class="cls-1"
       d="m 362.81,27.65 c 0,0 -25.56,-33.45 -45.81,-15.45"
       id="path869"
       style="stroke:#999999" />
    <path
       class="cls-1"
       d="m 127.65,76.45 c 3.13,5 6.52,9.74 11.75,12.8 6.08,3.56 9.87,1.21 14.75,-3.3 4.69,-4.34 13.66,-2.5 19.75,-2.5 5.39,0 9.59,-2.58 14.5,-4.56 4.1,-1.65 7.34,-3.79 9.08,-8 1.26,-3 1.3,-6.32 2.61,-9.44 2.14,-5.11 1.34,-11 3.31,-16.29"
       id="path871"
       style="stroke:#999999" />
    <path
       class="cls-1"
       d="m 235.15,45 c 0.51,2.82 -1.9,6 -1,9 0.9,3 4.27,4.33 4.76,8 a 49.74,49.74 0 0 1 -1,16"
       id="path873"
       style="stroke:#999999" />
    <path
       class="cls-1"
       d="m 330.15,32.7 c 0,4.33 -0.18,7.59 -3,11 -2.82,3.41 -7,5.45 -10.75,7.93 -3.75,2.48 -7.57,2.91 -10.2,6.82 a 15.12,15.12 0 0 0 -2.25,5.23 c -0.45,2.1 -1.5,4.34 -1.5,6.52"
       id="path875"
       style="stroke:#999999" />
    <path
       class="cls-1"
       d="m 158.4,268.12 c 0,0 21.19,29.59 54.76,2"
       id="path877"
       style="stroke:#999999" />
    <path
       class="cls-1"
       d="m 124.4,266.86 c 0,0 -0.88,24.93 12,26.67 7.46,1 11.5,9.07 20,10.3 5.57,0.8 13.05,-1.33 24.66,-10.3"
       id="path879"
       style="stroke:#999999" />
    <path
       class="cls-1"
       d="m 225.77,301.41 c 0,0 -20,19.12 -25.32,10.79 0,0 -16.38,19.33 -43.38,-7.67"
       id="path881"
       style="stroke:#999999" />
    <path
       class="cls-1"
       d="m 443.07,120.2 c 0,0 -17.25,15.52 -38.67,12 -10.33,-1.7 -19.16,36.83 -21.83,39.5 0,0 -20.5,14.16 -22.83,28.16 a 54.41,54.41 0 0 0 -27,14.34 c -12.18,12.18 -32,18.28 -34.84,19.66"
       id="path883"
       style="stroke:#999999" />
    <path
       class="cls-1"
       d="m 375.69,35.87 c 31.71,7.33 37.05,37.66 37.05,37.66 26,19.55 30.33,46.67 30.33,46.67"
       id="path885"
       style="stroke:#999999" />
    <path
       class="cls-1"
       d="m 359.74,199.86 c 0,0 15,5.34 25.66,0 10.66,-5.34 23,-17.66 32,-17.66 9,0 36.86,27.89 43,51.72 2.68,10.36 18.67,10.94 16.34,31.78 0,0 -1.67,18.5 -12.67,17.16 -11,-1.34 -8.5,-0.16 -12.33,-4 -3.83,-3.84 -14.67,-4.66 -19,-6 -4.33,-1.34 -9.34,-7.33 -9.34,-15.66 0,-8.33 6,-15.67 7.34,-21.34 1.34,-5.67 4.66,-18.33 0.66,-26.66"
       id="path887"
       style="stroke:#999999" />
    <path
       class="cls-1"
       d="m 294.8,263.73 a 30.87,30.87 0 0 1 12.94,-11.53 c 8.83,-4.17 23.33,-1 25,-7.34 0,0 24.33,2.34 24.33,-9"
       id="path889"
       style="stroke:#999999" />
    <path
       class="cls-1"
       d="m 425.33,265.7 c 0,0 -3.26,-5.17 -15.26,-8.17 -12,-3 -24.33,-17.33 -24.33,-19.33"
       id="path891"
       style="stroke:#999999" />
    <path
       class="cls-1"
       d="m 393,247.15 c 0,0 -30.3,-5.29 -36.3,-12 -6,-6.71 -22.67,-5.34 -22.67,-5.34"
       id="path893"
       style="stroke:#999999" />
    <path
       class="cls-1"
       d="m 443.07,120.2 c 0,0 20.67,8 9.33,29"
       id="path895"
       style="stroke:#999999" />
    <path
       class="cls-1"
       d="m 471.65,247.15 c 0,0 7.75,-0.29 7.75,-11.29 0,-11 -1.33,-50.33 -12,-68 -10.67,-17.67 -13.66,-30.66 -54.33,-5.66"
       id="path897"
       style="stroke:#999999" />
    <path
       class="cls-1"
       d="m 462.74,223.53 c 0,0 -5,-46 -24.67,-52.67"
       id="path899"
       style="stroke:#999999" />
    <path
       class="cls-1"
       d="m 295.93,229.75 c 0,0 16.47,-11.29 19.81,-21.42 3.34,-10.13 13.66,-26.47 20,-26.47 6.34,0 15.17,3.81 17.33,1.65 2.16,-2.16 5.67,-28 5.67,-28"
       id="path901"
       style="stroke:#999999" />
    <path
       class="cls-1"
       d="m 350.4,120.2 c 0,0 26.68,-20.42 36.67,-22.84 2.24,-0.54 9.12,9.54 11,11.42"
       id="path903"
       style="stroke:#999999" />
    <path
       class="cls-1"
       d="m 391.37,100.61 c 0,0 -2.69,-6.73 0,-9.41 2.69,-2.68 21.37,-12.67 21.37,-17.67"
       id="path905"
       style="stroke:#999999" />
    <path
       class="cls-1"
       d="m 74.4,188.86 c 0,0 -8.66,-12 1.34,-27.33 10,-15.33 31.22,-36.4 44.33,-20.08"
       id="path907"
       style="stroke:#999999" />
    <path
       class="cls-1"
       d="m 295.93,248.72 c 0,0 16.81,-14.86 36.81,-3.86"
       id="path909"
       style="stroke:#999999" />
    <path
       class="cls-1"
       d="m 80.07,55.2 c -1.48,1.6 -2.68,6.52 -1.71,8.93 1.33,3.27 6.41,4.32 8.31,7.41 3.29,5.34 0.87,12.63 -0.26,18 -1.32,6.31 -2.41,12.46 1,18.34 3.41,5.88 11.11,6.82 17,8 a 48.68,48.68 0 0 0 12,1"
       id="path911"
       style="stroke:#999999" />
    <path
       class="cls-1"
       d="m 246.4,61.45 c 0,0 16.25,-9.25 18.25,-9.25 5.66,0 -3,-39.5 -3,-39.5 0,0 -13.25,-9.25 -42,-5.25 -28.75,4 -47,9 -51.37,18.62 C 163.91,35.69 183,46 190.09,47 c 7.09,1 25.31,-2.5 33.31,-24.25"
       id="path913"
       style="stroke:#999999" />
    <path
       class="cls-1"
       d="m 231.41,162.51 c 0,0 22.41,7.12 32.58,27.4"
       id="path915"
       style="stroke:#999999" />
    <path
       class="cls-1"
       d="m 188.15,189.11 c 0,0 20,27.67 33.86,20.5"
       id="path917"
       style="stroke:#999999" />
    <path
       class="cls-1"
       d="m 188.53,183.51 c 0,0 11.37,20.69 19.62,19.49 8.25,-1.2 33.91,-5.8 40.75,1.05"
       id="path919"
       style="stroke:#999999" />
    <line
       class="cls-1"
       x1="284.23999"
       y1="211.36"
       x2="303.69"
       y2="198.05"
       id="line921"
       style="stroke:#999999" />
    <path
       class="cls-1"
       d="m 196.39,157.58 c 0,0 21.26,-13.88 43.26,-10.38 22,3.5 41.38,20.53 45.57,31.27"
       id="path923"
       style="stroke:#999999" />
    <path
       class="cls-1"
       d="m 23.9,141.45 c -2.4,-2.67 -7.35,-4.68 -9,-7.75"
       id="path925"
       style="stroke:#999999" />
    <path
       class="cls-1"
       d="m 37.4,131.45 c -1.39,-0.47 -0.94,-2.31 -1.54,-3.57 a 10.78,10.78 0 0 0 -3.46,-3.62 q -4,-3.06 -8,-6.06"
       id="path927"
       style="stroke:#999999" />
    <path
       class="cls-1"
       d="m 19.65,192.7 c -3.5,0.22 -5.77,1.7 -9,2.75 -3.23,1.05 -8,-2.06 -9.25,2"
       id="path929"
       style="stroke:#999999" />
    <path
       class="cls-1"
       d="m 146.15,241.7 c -1.41,0.65 -5.3,-2.68 -6.81,-3.31 -1.88,-0.78 -3.85,-1 -5.19,-2.69"
       id="path931"
       style="stroke:#999999" />
    <path
       class="cls-1"
       d="m 2.9,171.7 c 2.11,-1 5.52,1.09 8,1.25 2.14,0.13 4.34,0 6.49,0"
       id="path933"
       style="stroke:#999999" />
    <path
       class="cls-1"
       d="m 87.4,108.2 c -4.92,-1.91 -10.37,1.27 -14,4 -2.26,1.71 -4.84,2.5 -6.75,4.74 a 37.55,37.55 0 0 0 -5,8.25 66.69,66.69 0 0 1 -4.06,8 c -1.34,2.1 -3.64,6.34 -6,7.48 -2.89,1.42 -4.41,-0.58 -5.67,3.47 a 73.93,73.93 0 0 0 -2.38,7.1 c -0.9,4.38 1.57,11.37 -1.69,14.9"
       id="path935"
       style="stroke:#999999" />
    <path
       class="cls-1"
       d="m 132.9,58.45 c 0.77,-0.35 -0.28,7.15 -0.75,8.51 a 26.57,26.57 0 0 1 -3.75,7.44 c -1.35,1.86 -3.21,5 -5.5,5.82 -2.06,0.69 -4.58,-0.3 -6.75,0.48"
       id="path937"
       style="stroke:#999999" />
    <path
       class="cls-1"
       d="m 276.15,13 c 1.32,1.1 1.64,3.21 2.44,4.76 a 34,34 0 0 0 3.36,5 c 2.68,3.46 6.1,4.9 9.45,7.53"
       id="path939"
       style="stroke:#999999" />
    <path
       class="cls-1"
       d="m 270.15,28.45 c 2.45,0.69 4.67,2 7.25,2.45 a 50.38,50.38 0 0 0 5.36,0.3 c 2.75,0.13 6.88,1.14 9.14,-0.75"
       id="path941"
       style="stroke:#999999" />
    <path
       class="cls-1"
       d="m 291.65,30.45 c 1.66,3.29 -0.54,7.35 2,11 1.19,1.71 2.88,3 3.95,4.74 1.07,1.74 1.51,3.73 2.31,5.53 1.41,3.16 3.33,5.06 3.5,8.73 0.15,3.11 -0.48,5.94 -0.5,9"
       id="path943"
       style="stroke:#999999" />
    <path
       class="cls-1"
       d="m 110.15,102.45 a 36,36 0 0 0 9.34,-0.75 c 2.43,-0.65 4.79,-0.65 7.41,-1.06 2.89,-0.45 5.8,-2.59 8.23,-4.18 a 69.36,69.36 0 0 0 7.27,-5.26"
       id="path945"
       style="stroke:#999999" />
    <path
       class="cls-1"
       d="m 332.72,214.2 c 0,0 16.35,5.33 27.35,5.33 11,0 34.67,-12.67 34.67,-12.67"
       id="path947"
       style="stroke:#999999" />
    <path
       class="cls-1"
       d="m 451.07,165.2 c -5.13,-0.49 -5,8.35 -5,12"
       id="path949"
       style="stroke:#999999" />
    <path
       class="cls-1"
       d="m 326,76.89 c 0,0 22.09,22.52 10,44.64 -1.69,3.11 -19.79,-11.67 -29.12,2.79"
       id="path951"
       style="stroke:#999999" />
    <path
       class="cls-1"
       d="m 321.07,95.86 c 1.37,1.07 -1.89,19 -3.33,21.67"
       id="path953"
       style="stroke:#999999" />
    <path
       class="cls-1"
       d="m 336.07,121.53 c 0,0 10.33,8.67 10.33,15.17 0,6.5 6.34,18.83 12.34,18.83 6,0 17.27,-8 17.27,-12.67"
       id="path955"
       style="stroke:#999999" />
    <path
       class="cls-1"
       d="m 335.74,181.86 c 0,0 0.33,-17 2,-23 1.67,-6 3.94,-20.61 7.3,-26.8 3.36,-6.19 26.58,-3.2 31,-3.2 4.42,0 10.16,-3.1 15.16,-3.1 5,0 10.62,1.37 12.49,6.07"
       id="path957"
       style="stroke:#999999" />
    <path
       class="cls-1"
       d="m 400.07,238.2 c 0,0 -3,-7.09 0,-10.06 3,-2.97 16,-9.61 16,-14.94"
       id="path959"
       style="stroke:#999999" />
    <path
       class="cls-1"
       d="m 379.4,225.7 c 0,0 11,-1.31 19.36,4.08"
       id="path961"
       style="stroke:#999999" />
    <path
       class="cls-1"
       d="m 446.07,206.86 c 0,0 12.6,23.6 10.13,31.63 -2.47,8.03 -3.46,26.71 2.2,26.71"
       id="path963"
       style="stroke:#999999" />
    <path
       class="cls-1"
       d="m 282.74,87.2 c -2.41,4 -2.62,9.11 -5.34,13 -2.3,3.28 -7.65,5.4 -11.66,5"
       id="path965"
       style="stroke:#999999" />
    <path
       class="cls-1"
       d="m 317,167 c 0,0 -7.22,-16.08 8.12,-31.42"
       id="path967"
       style="stroke:#999999" />
    <path
       class="cls-1"
       d="m 281,134 c 0,0 10.62,-23 24,-30.54"
       id="path969"
       style="stroke:#999999" />
    <path
       class="cls-1"
       d="m 243,33.2 c 0,0 -2.84,19.75 -16.84,8"
       id="path971"
       style="stroke:#999999" />
    <path
       class="cls-1"
       d="m 214.65,58.44 c 0,0 -10.79,0 -15,4.16 -4.21,4.16 15,10.93 15,10.93"
       id="path973"
       style="stroke:#999999" />
    <path
       class="cls-1"
       d="m 264.4,68.09 c 0,0 1.75,-11.64 0.25,-15.89"
       id="path975"
       style="stroke:#999999" />
    <path
       class="cls-1"
       d="m 372.65,62.7 c 0,0 13,25.52 22.86,25.52"
       id="path977"
       style="stroke:#999999" />
    <path
       class="cls-1"
       d="m 406.4,99 c 0,0 21.38,32.62 25.51,28.5"
       id="path979"
       style="stroke:#999999" />
    <path
       class="cls-1"
       d="m 426.65,105.25 c 0,0 -8.5,10.64 -6.86,12.28"
       id="path981"
       style="stroke:#999999" />
    <path
       class="cls-1"
       d="m 109.42,251.85 c 0,0 -2,5.6 1.73,6.85 3.73,1.25 -5.25,5 -5.25,5 0,0 -4.46,3.35 -4.46,5.42"
       id="path983"
       style="stroke:#999999" />
    <path
       class="cls-1"
       d="m 47.65,252.31 c 0,0 -6.24,9.38 -9.28,8.17"
       id="path985"
       style="stroke:#999999" />
    <path
       class="cls-1"
       d="m 315.25,209.58 c -5.25,5.25 -20.79,4.95 -27.94,4.95"
       id="path987"
       style="stroke:#999999" />
    <path
       class="cls-1"
       d="m 199.08,105.25 c 0,0 -3.43,14.24 -13.39,16.37"
       id="path989"
       style="stroke:#999999" />
    <path
       class="cls-1"
       d="m 251.4,99 c 0,0 6.92,-7.11 5,-17.31"
       id="path991"
       style="stroke:#999999" />
    <path
       class="cls-1"
       d="m 264,93.7 c 0,0 -7.36,-3.06 -7.36,-6.63"
       id="path993"
       style="stroke:#999999" />
    <path
       class="cls-1"
       d="m 285.22,111 c 0,0 -8.54,-2 -7.05,-12"
       id="path995"
       style="stroke:#999999" />
    <path
       class="cls-1"
       d="m 347.65,83.45 c 0,0 9.51,-6.56 12,-6.56 2.49,0 -9.25,-9.89 -9.25,-9.89"
       id="path997"
       style="stroke:#999999" />
    <path
       class="cls-1"
       d="m 409.65,153.81 c 0,0 12.61,-13.43 9.93,-22"
       id="path999"
       style="stroke:#999999" />
    <path
       class="cls-1"
       d="m 426.65,149.2 c 0,0 -9.18,-3.8 -9.18,-6.4"
       id="path1001"
       style="stroke:#999999" />
  </g>
</svg>
